# xmcd CD database file
#
# Track frame offsets:
#	150
#	18509
#	38672
#	57922
#	75260
#	89315
#	108506
#	127381
#	147968
#	165560
#	185636
#	201771
#
# Disc length: 2930 seconds
#
# Revision: 0
# Processed by: cddbd v1.5PL3 Copyright (c) Steve Scherf et al.
# Submitted via: CDex 1.51
#
DISCID=a00b700c
DTITLE=Dave Mathews Band - Best Of 1994 - 2001
DYEAR=1900
DGENRE=Blues
TTITLE0=What would you say
TTITLE1=Ants marching
TTITLE2=Satellite
TTITLE3=Too much
TTITLE4=So much to say
TTITLE5=Crash into me
TTITLE6=Triping blues
TTITLE7=Don't drink the water
TTITLE8=Stay(wasting time)
TTITLE9=Crush
TTITLE10=I did it
TTITLE11=The space between
EXTD=
EXTT0=
EXTT1=
EXTT2=
EXTT3=
EXTT4=
EXTT5=
EXTT6=
EXTT7=
EXTT8=
EXTT9=
EXTT10=
EXTT11=
PLAYORDER=
